<?xml version="1.0" standalone="no"?>
<!DOCTYPE svg PUBLIC "-//W3C//DTD SVG 20010904//EN"
 "http://www.w3.org/TR/2001/REC-SVG-20010904/DTD/svg10.dtd">
<svg version="1.0" xmlns="http://www.w3.org/2000/svg"
 width="512.000000pt" height="512.000000pt" viewBox="0 0 512.000000 512.000000"
 preserveAspectRatio="xMidYMid meet">

<g transform="translate(0.000000,512.000000) scale(0.100000,-0.100000)"
fill="#000000" stroke="none">
<path d="M870 4665 c-106 -33 -214 -143 -245 -250 -13 -44 -15 -280 -13 -1775
l3 -1725 29 -57 c40 -78 108 -145 186 -182 l65 -31 591 -3 c371 -2 601 1 617
7 62 24 80 122 32 170 l-25 26 -589 5 -589 5 -39 31 c-80 64 -73 -104 -73
1775 l0 1676 23 43 c16 30 37 51 67 67 l43 23 969 0 968 0 0 -307 c0 -289 1
-310 20 -340 11 -18 21 -34 22 -35 2 -1 158 -5 348 -8 l345 -5 3 -756 2 -756
-44 -17 c-101 -39 -190 -118 -647 -575 -475 -475 -494 -497 -535 -621 -26 -79
-24 -197 5 -283 39 -116 134 -224 246 -280 77 -39 136 -50 233 -45 95 6 164
28 240 77 26 16 236 220 467 453 461 464 466 470 473 589 5 89 -21 150 -99
224 -77 73 -135 100 -219 99 -50 0 -77 -6 -119 -28 -72 -36 -84 -47 -393 -362
l-268 -273 0 -46 c0 -64 39 -105 101 -105 43 0 44 1 329 284 157 156 296 291
310 300 40 27 84 21 124 -18 44 -41 46 -70 7 -122 -16 -21 -210 -220 -432
-440 -438 -435 -430 -429 -539 -427 -94 1 -174 50 -228 142 -23 38 -27 58 -27
116 1 127 -6 119 498 621 369 368 465 459 523 493 181 106 352 80 509 -78 181
-182 207 -345 84 -528 -17 -27 -204 -221 -415 -433 -213 -214 -388 -398 -394
-414 -24 -65 30 -136 104 -136 40 0 45 4 404 363 200 199 391 395 423 435 152
188 201 397 140 592 -77 244 -329 464 -561 489 l-55 6 -5 812 -5 813 -60 59
c-33 33 -208 200 -390 370 l-330 311 -1085 -1 c-899 0 -1093 -3 -1130 -14z
m2430 -504 l175 -170 -182 0 -183 -1 0 170 c0 94 4 170 8 170 4 0 87 -76 182
-169z"/>
<path d="M1436 3135 c-42 -22 -55 -44 -56 -91 0 -52 28 -90 78 -104 25 -8 275
-10 795 -8 l759 3 29 33 c40 45 40 99 0 144 l-29 33 -774 3 c-677 2 -777 0
-802 -13z"/>
<path d="M1409 2421 c-50 -51 -36 -137 28 -170 32 -16 1542 -16 1578 1 60 27
74 120 26 169 l-29 29 -787 0 -787 0 -29 -29z"/>
<path d="M1434 1760 c-34 -13 -54 -50 -54 -98 0 -35 6 -49 29 -73 l29 -29 482
0 482 0 29 29 c39 39 41 106 5 148 l-24 28 -479 2 c-263 1 -488 -2 -499 -7z"/>
</g>
</svg>
