<?xml version="1.0" standalone="no"?>
<!DOCTYPE svg PUBLIC "-//W3C//DTD SVG 20010904//EN"
 "http://www.w3.org/TR/2001/REC-SVG-20010904/DTD/svg10.dtd">
<svg version="1.0" xmlns="http://www.w3.org/2000/svg"
 width="512.000000pt" height="512.000000pt" viewBox="0 0 512.000000 512.000000"
 preserveAspectRatio="xMidYMid meet">
<metadata>
Created by potrace 1.16, written by Peter Selinger 2001-2019
</metadata>
<g transform="translate(0.000000,512.000000) scale(0.100000,-0.100000)"
 stroke="none">
<path d="M2408 5101 c-77 -25 -147 -71 -207 -137 -44 -48 -101 -146 -101 -173
0 -14 -5 -14 -64 4 -70 21 -210 19 -285 -4 -147 -46 -272 -172 -315 -320 -14
-47 -16 -133 -16 -618 l0 -564 -45 31 c-124 85 -293 140 -433 140 -97 0 -137
-17 -166 -72 -16 -31 -17 -94 -14 -938 4 -896 4 -906 27 -1005 54 -240 148
-465 270 -646 270 -401 664 -665 1151 -771 93 -20 133 -22 350 -22 217 0 257
2 350 22 239 52 467 147 651 271 399 268 660 656 771 1146 l22 100 3 1134 c3
1019 2 1139 -12 1190 -43 149 -167 276 -318 323 -75 23 -210 26 -279 4 l-48
-14 0 68 c0 201 -144 388 -343 445 -71 20 -204 21 -268 2 l-45 -14 -11 56
c-31 165 -157 306 -320 360 -81 27 -223 28 -305 2z m225 -305 c47 -19 84 -67
96 -126 8 -35 11 -342 11 -958 0 -872 1 -908 19 -936 31 -46 69 -66 131 -66
62 0 100 20 131 66 18 28 19 60 19 731 0 468 4 719 11 753 19 88 80 140 164
140 92 0 155 -50 174 -140 7 -34 11 -285 11 -753 0 -671 1 -703 19 -731 31
-46 69 -66 131 -66 62 0 100 20 131 66 18 27 19 55 19 481 0 288 4 470 11 503
19 88 80 140 164 140 92 0 155 -50 174 -140 14 -63 15 -1852 1 -2045 -15 -223
-59 -386 -155 -580 -142 -285 -385 -528 -670 -670 -248 -123 -491 -171 -772
-153 -517 33 -994 353 -1228 823 -96 194 -140 357 -155 580 -9 127 -14 1415
-6 1415 19 0 102 -46 153 -84 73 -55 143 -154 174 -246 20 -59 22 -90 26 -320
3 -211 7 -261 20 -288 24 -47 70 -72 134 -72 60 0 99 20 130 66 18 28 19 67
19 1076 0 717 3 1063 11 1098 19 88 80 140 164 140 92 0 155 -50 174 -140 7
-34 11 -299 11 -803 0 -720 1 -753 19 -781 31 -46 69 -66 131 -66 62 0 100 20
131 66 18 28 19 64 19 936 0 608 4 924 11 957 19 89 79 141 162 141 26 0 62
-6 80 -14z"/>
<path d="M2092 2086 c-143 -54 -243 -156 -302 -311 -31 -82 -39 -262 -16 -355
22 -89 83 -210 154 -305 79 -107 256 -276 395 -379 161 -118 175 -126 239
-126 48 0 62 5 127 49 277 184 519 435 611 633 50 107 63 178 58 308 -6 139
-34 223 -106 318 -96 127 -206 184 -367 190 -114 4 -192 -15 -277 -70 l-48
-30 -47 30 c-118 75 -293 95 -421 48z m238 -301 c15 -8 52 -42 81 -76 62 -71
93 -89 149 -89 56 0 87 18 149 89 63 73 94 91 156 91 76 0 126 -37 164 -120
43 -95 21 -217 -62 -342 -51 -78 -225 -253 -329 -332 l-78 -59 -77 59 c-105
79 -279 254 -330 332 -23 34 -51 87 -62 118 -49 131 -8 276 94 332 29 16 111
14 145 -3z"/>
</g>
</svg>
