<?xml version="1.0" encoding="utf-8"?>
<!-- Generator: Adobe Illustrator 23.0.3, SVG Export Plug-In . SVG Version: 6.00 Build 0)  -->
<svg version="1.1" id="Capa_1" xmlns="http://www.w3.org/2000/svg" xmlns:xlink="http://www.w3.org/1999/xlink" x="0px" y="0px"
	 viewBox="0 0 612 228" style="enable-background:new 0 0 612 228;" xml:space="preserve">
<style type="text/css">
	.st0{fill:none;}
	.st1{fill:#004087;}
	.st2{fill:#004088;}
	.st3{fill:#014188;}
	.st4{fill:#FEFEFE;}
	.st5{fill:#FDFDFE;}
</style>
<g>
	<path class="st0" d="M310.57,9c97.92,0,195.84,0,293.76-0.02c0.9,0,1.1,0.2,1.1,1.1c-0.02,69.44-0.02,138.88,0,208.32
		c0,0.9-0.2,1.1-1.1,1.1c-195.84-0.02-391.68-0.02-587.52,0c-0.9,0-1.1-0.2-1.1-1.1c0.02-69.44,0.02-138.88,0-208.32
		c0-0.9,0.2-1.1,1.1-1.1C114.73,9,212.65,9,310.57,9z"/>
	<path d="M450.29,152.04c-45.76,0-91.31,0-136.87,0c-0.06-0.42,0.29-0.63,0.49-0.89c7.46-9.69,14.93-19.37,22.37-29.07
		c0.47-0.61,0.95-0.81,1.69-0.81c13.64,0.02,27.28,0.02,40.92,0.02c0.43,0,0.87,0,1.61,0c-11.31-15.46-22.49-30.75-33.75-46.13
		c-0.77,1.03-1.51,2.01-2.25,3c-18.14,24.35-36.29,48.7-54.42,73.05c-0.39,0.53-0.74,0.91-1.52,0.9
		c-15.08-0.03-30.16-0.02-45.24-0.02c-0.15,0-0.31-0.02-0.47-0.03c-0.07-0.4,0.23-0.59,0.41-0.83c19.2-25.7,38.41-51.4,57.62-77.1
		c8.73-11.68,17.45-23.37,26.18-35.05c4.19-5.61,9.65-9.54,16.47-11.03c8.43-1.84,15.93,0.63,22.48,6.15
		c2.76,2.33,4.64,5.37,6.69,8.27c25.67,36.24,51.33,72.49,77,108.73C449.86,151.41,450.01,151.64,450.29,152.04z"/>
	<path d="M192.8,28.08c-1.66,2.16-3.15,4.11-4.66,6.06c-6.02,7.82-12.06,15.63-18.06,23.46c-0.55,0.72-1.09,0.98-1.99,0.97
		c-22.72-0.03-45.44-0.11-68.15,0.02c-8.8,0.05-16.84,2.68-23.48,8.73c-4.54,4.14-7.05,9.41-8.03,15.42
		c-1.15,7.04-0.74,13.95,2.08,20.58c3.84,9.05,10.85,14.35,20.21,16.79c4.2,1.09,8.49,1.48,12.82,1.48c29.24,0,58.48,0,87.71,0
		c0.43,0,0.85,0,1.54,0c-0.95,1.25-1.75,2.31-2.57,3.37c-6.71,8.7-13.43,17.4-20.11,26.12c-0.57,0.74-1.15,1.01-2.08,1.01
		c-26.36-0.02-52.72,0.03-79.07-0.04c-11.5-0.03-22.43-2.44-32.29-8.65c-9.11-5.74-15.5-13.81-19.83-23.57
		c-4.76-10.72-6.86-21.98-6.58-33.68c0.22-9.39,1.87-18.49,5.94-27.04c4.97-10.43,12.73-18.18,22.95-23.45
		c9.97-5.13,20.58-7.62,31.82-7.6c33.4,0.05,66.79,0.02,100.19,0.02C191.63,28.08,192.09,28.08,192.8,28.08z"/>
	<path d="M591,28.16c-4.84,6.28-9.49,12.32-14.14,18.36c-2.76,3.58-5.54,7.13-8.25,10.74c-0.59,0.79-1.19,1.08-2.18,1.08
		c-23.64-0.03-47.27-0.03-70.91-0.02c-1.84,0-1.59-0.25-1.59,1.57c-0.01,4.28,0.04,8.56-0.03,12.84c-0.02,1.13,0.22,1.46,1.41,1.46
		c28.6-0.04,57.19-0.03,85.79-0.03c0.48,0,0.95,0,1.44,0c0.05,0.53-0.32,0.78-0.55,1.07c-6.67,8.78-13.37,17.54-20.03,26.33
		c-0.47,0.62-0.94,0.81-1.68,0.81c-21.56-0.02-43.11,0-64.67-0.05c-1.19,0-1.4,0.31-1.39,1.43c0.04,15.68,0.02,31.35,0.05,47.03
		c0,1.04-0.22,1.32-1.29,1.31c-12.28-0.04-24.56-0.04-36.83,0c-0.98,0-1.24-0.2-1.24-1.22c0.03-40.51,0.03-81.03,0-121.54
		c0-1.03,0.28-1.21,1.25-1.21c44.47,0.03,88.95,0.02,133.42,0.02C589.95,28.16,590.34,28.16,591,28.16z"/>
	<path d="M240.72,90.11c0,20.24-0.01,40.47,0.03,60.71c0,1.09-0.3,1.28-1.32,1.28c-12.2-0.04-24.4-0.03-36.59,0
		c-0.97,0-1.35-0.12-1.35-1.26c0.04-40.47,0.04-80.95,0-121.42c0-1.1,0.32-1.28,1.33-1.28c12.2,0.04,24.4,0.04,36.59-0.01
		c1.15,0,1.33,0.36,1.33,1.39C240.72,49.72,240.72,69.92,240.72,90.11z"/>
	<path class="st1" d="M176.41,184.52c0-3.49,0.03-6.64-0.02-9.78c-0.01-0.89,0.16-1.32,1.17-1.23c0.95,0.09,1.92,0.06,2.88,0.01
		c0.73-0.04,0.97,0.18,0.95,0.93c-0.05,1.84-0.03,3.68-0.01,5.52c0.08,7.07-0.19,14.15,0.16,21.22c0.03,0.6-0.1,0.92-0.77,0.83
		c-0.2-0.03-0.4,0-0.6,0c-0.96-0.01-2.07,0.27-2.83-0.12c-0.81-0.42-0.09-1.7-0.58-2.64c-1.01,1.43-2.28,2.45-3.93,2.93
		c-3.65,1.06-7.44-0.38-9.24-3.74c-2.18-4.05-2.13-8.23,0.09-12.25c1.86-3.36,5.64-4.83,9.35-3.89
		C174.3,182.61,175.35,183.29,176.41,184.52z"/>
	<path class="st1" d="M389.28,185.19c1.42-1.87,3.31-2.97,5.66-3.13c3.69-0.26,6.63,1.38,8.06,4.8c1.82,4.37,1.64,8.69-1.3,12.59
		c-2.53,3.35-8.47,4.47-12.09,0.6c0,2.62,0,5.07,0,7.52c0,2.43,0,2.43-2.44,2.43c-2.56,0-2.56,0-2.56-2.51
		c-0.01-7.56-0.02-15.12-0.04-22.67c-0.01-2.32-0.02-2.32,2.33-2.32c1.89,0,1.88,0,2.1,1.89
		C389.02,184.63,388.94,184.94,389.28,185.19z"/>
	<path class="st2" d="M142.01,188.44c0-4.12,0.03-8.24-0.02-12.36c-0.01-0.91,0.25-1.14,1.14-1.13c4.52,0.04,9.04,0.04,13.56,0
		c0.85-0.01,1.26,0.14,1.14,1.09c-0.13,0.98,0.41,2.27-0.2,2.89c-0.62,0.62-1.9,0.17-2.88,0.18c-2.24,0.03-4.48,0.04-6.72-0.01
		c-0.73-0.01-1.06,0.1-1.03,0.95c0.07,1.68,0.06,3.36,0,5.04c-0.03,0.76,0.23,0.94,0.95,0.93c2.72-0.04,5.44,0.02,8.16-0.04
		c0.92-0.02,1.13,0.27,1.13,1.15c-0.02,2.94,0.01,2.94-2.91,2.94c-2.12,0-4.24,0.02-6.36-0.01c-0.69-0.01-0.99,0.12-0.97,0.91
		c0.06,2.04,0.05,4.08,0,6.12c-0.02,0.71,0.23,0.86,0.89,0.85c3.16-0.03,6.32,0.02,9.48-0.03c0.86-0.01,1.07,0.26,1.07,1.08
		c0,3.01,0.03,3.01-2.93,3.01c-4.08,0-8.16-0.03-12.24,0.02c-0.97,0.01-1.29-0.2-1.27-1.23
		C142.04,196.67,142.01,192.56,142.01,188.44z"/>
	<path class="st1" d="M348.08,174.56c2.03-0.04,3.86,0.28,5.65,0.95c0.69,0.26,0.81,0.59,0.57,1.24c-0.34,0.94-0.33,2.19-0.97,2.77
		c-0.72,0.66-1.69-0.46-2.62-0.6c-1.63-0.24-3.25-0.52-4.86,0.03c-1.25,0.42-2.17,1.19-2.36,2.59c-0.19,1.36,0.48,2.3,1.54,3.02
		c1.16,0.79,2.48,1.28,3.78,1.79c1.15,0.45,2.27,0.96,3.31,1.65c5.03,3.38,4.62,10.61-0.85,13.2c-4.19,1.98-8.46,1.54-12.68-0.11
		c-0.53-0.21-0.62-0.51-0.47-1.02c0.31-1.03,0.27-2.42,0.94-3.02c0.76-0.68,1.8,0.53,2.78,0.75c1.88,0.43,3.75,0.81,5.68,0.32
		c1.55-0.4,2.7-1.25,2.96-2.92c0.26-1.66-0.56-2.83-1.93-3.68c-0.92-0.57-1.92-0.97-2.93-1.33c-1.39-0.51-2.74-1.11-3.95-1.97
		c-2.25-1.59-3.47-3.69-3.21-6.53c0.27-2.96,1.88-4.92,4.5-6.14C344.63,174.76,346.39,174.48,348.08,174.56z"/>
	<path class="st1" d="M456.09,192.39c-0.01-8.2,7.97-13.06,15.11-9.15c3.3,1.8,4.54,4.83,4.77,8.44c0.34,5.23-2.78,9.54-7.74,10.57
		C461.45,203.65,456.09,199.3,456.09,192.39z"/>
	<path class="st1" d="M280.88,192.26c0.03-8.34,7.15-11.69,13.62-9.68c4.06,1.26,6.38,5.09,6.21,10.02
		c-0.14,4.18-1.84,7.49-5.87,9.07c-3.91,1.53-7.72,1.19-10.97-1.72C281.6,197.91,280.87,195.21,280.88,192.26z"/>
	<path class="st1" d="M241.01,199.98c-1.58,1.71-3.44,2.48-5.63,2.5c-2.94,0.03-5.22-1.48-6.02-4.01c-0.85-2.69,0.13-5.58,2.49-7.18
		c2.3-1.57,4.95-1.9,7.64-2.04c1.24-0.06,1.41-0.27,1-1.48c-0.47-1.38-1.52-1.99-2.9-2.13c-1.91-0.19-3.75,0.16-5.45,1.04
		c-0.55,0.28-0.71,0.2-0.91-0.37c-0.95-2.69-0.9-2.81,1.83-3.65c1.94-0.59,3.93-0.76,5.92-0.57c4.07,0.4,6.55,3.12,6.65,7.27
		c0.09,3.99-0.17,7.99,0.24,11.97c0.06,0.54-0.12,0.71-0.64,0.68c-0.48-0.03-0.96-0.01-1.44-0.01
		C241.66,202,241.66,202,241.01,199.98z"/>
	<path class="st2" d="M310.26,185.31c1.86-2.6,4.32-3.55,7.27-3.22c3.26,0.36,5.67,3,5.83,6.72c0.18,4.19,0.06,8.39,0.1,12.58
		c0.01,0.64-0.31,0.7-0.81,0.69c-1.08-0.02-2.16-0.05-3.24,0.01c-0.76,0.04-0.94-0.26-0.93-0.97c0.03-3.24,0.02-6.47,0.01-9.71
		c0-0.64-0.04-1.28-0.13-1.91c-0.3-2.11-1.53-3.33-3.38-3.4c-1.94-0.06-3.66,1.25-4.08,3.19c-0.13,0.62-0.17,1.27-0.17,1.9
		c-0.02,3.32-0.03,6.63,0.01,9.95c0.01,0.74-0.19,0.99-0.94,0.94c-1-0.06-2-0.07-2.99,0c-0.89,0.07-1.15-0.21-1.14-1.13
		c0.05-4.99,0.02-9.99,0.02-14.99c0-0.92,0-1.84-0.07-2.75c-0.04-0.59,0.15-0.8,0.72-0.75c0.32,0.03,0.64,0.01,0.96,0.01
		C309.93,182.48,309.93,182.48,310.26,185.31z"/>
	<path class="st1" d="M373.74,199.32c-1.95,2.65-4.56,3.54-7.63,3.03c-3.03-0.5-4.98-2.89-5.26-6.41
		c-0.29-3.67-0.08-7.35-0.12-11.02c-0.03-2.44-0.01-2.44,2.39-2.44c2.56,0,2.52,0,2.56,2.51c0.05,3.23-0.23,6.48,0.15,9.7
		c0.31,2.63,1.61,3.84,3.79,3.7c2.12-0.14,3.69-1.99,3.69-4.38c0-3.52,0.02-7.03-0.02-10.55c-0.01-0.76,0.16-1.06,0.98-1
		c1.03,0.07,2.08,0.07,3.11,0c0.8-0.05,0.99,0.23,0.98,1c-0.03,4.83-0.02,9.67-0.01,14.5c0,1.04,0.01,2.08,0.11,3.11
		c0.07,0.76-0.19,1.03-0.92,0.93c-0.16-0.02-0.32,0-0.48,0c-0.92-0.01-1.98,0.25-2.71-0.12
		C373.59,201.49,374.24,200.25,373.74,199.32z"/>
	<path class="st2" d="M200.71,199.17c-1.87,2.46-4.12,3.49-6.92,3.29c-2.66-0.18-4.49-1.5-5.49-3.96c-0.5-1.23-0.73-2.53-0.73-3.86
		c0-3.68,0.02-7.36-0.02-11.04c-0.01-0.84,0.12-1.24,1.08-1.14c0.95,0.1,1.92,0.07,2.88,0.01c0.82-0.06,1.09,0.19,1.08,1.05
		c-0.05,3.24-0.02,6.48-0.02,9.72c0,0.72,0.02,1.43,0.2,2.14c0.52,2.12,1.64,3.09,3.54,3.03c1.79-0.06,3.41-1.47,3.76-3.29
		c0.2-1.03,0.09-2.07,0.1-3.11c0.02-2.88,0.02-5.76-0.01-8.64c-0.01-0.66,0.15-0.95,0.86-0.89c1.34,0.12,3.09-0.56,3.9,0.28
		c0.65,0.67,0.19,2.42,0.2,3.7c0.03,4.88-0.1,9.75,0.18,14.62c0.04,0.74-0.1,1.03-0.87,0.94c-0.51-0.06-1.04-0.01-1.56-0.01
		c-1.99,0-1.99,0-2.11-2.04C200.76,199.8,200.74,199.65,200.71,199.17z"/>
	<path class="st2" d="M419.13,193.67c-1.84,0-3.68,0.05-5.51-0.02c-0.98-0.04-1.04,0.38-0.84,1.14c0.55,2.13,2.37,3.59,4.84,3.8
		c1.93,0.16,3.84,0.02,5.68-0.57c0.63-0.2,0.82-0.12,0.94,0.54c0.53,3.16,1.36,2.62-2.22,3.47c-2.15,0.51-4.34,0.57-6.54,0.19
		c-3.96-0.68-6.67-3.28-7.38-7.29c-0.7-3.95-0.03-7.6,2.97-10.48c2.67-2.57,5.94-3,9.36-1.94c3.21,1,4.62,3.58,5.24,6.7
		c0.22,1.14,0.25,2.3,0.2,3.46c-0.03,0.75-0.31,1.04-1.09,1.01C422.88,193.64,421,193.67,419.13,193.67z"/>
	<path class="st2" d="M221.19,182.04c1.19-0.08,2.48,0.2,3.76,0.53c0.65,0.17,1.06,0.42,0.78,1.24c-0.29,0.82-0.2,1.92-0.72,2.49
		c-0.6,0.65-1.54-0.2-2.36-0.29c-2.57-0.29-4.79,0.2-6.31,2.47c-1.42,2.13-1.39,5.57,0.05,7.6c1.75,2.47,4.27,2.71,6.96,2.22
		c1.84-0.33,1.83-0.38,2.17,1.41c0.36,1.89,0.36,1.89-1.51,2.33c-2.21,0.52-4.44,0.63-6.65,0.1c-5.17-1.26-7.51-5.48-7.13-10.33
		C210.73,185.58,214.79,182.04,221.19,182.04z"/>
	<path class="st2" d="M250.57,192.43c0.07-6.9,5.7-11.44,12.76-10.29c3.08,0.5,3.02,0.49,2.35,3.49c-0.21,0.96-0.52,0.97-1.33,0.71
		c-4.01-1.26-7.43,0.33-8.39,3.82c-1.48,5.42,2.47,9.42,7.99,8.08c0.31-0.07,0.63-0.14,0.91-0.28c0.61-0.3,0.77,0.01,0.84,0.53
		c0.04,0.28,0.08,0.55,0.13,0.83c0.44,2.39,0.44,2.4-1.96,2.83c-2.06,0.37-4.13,0.45-6.19-0.05
		C253.23,201.02,250.53,197.33,250.57,192.43z"/>
	<path class="st2" d="M435.16,185.89c0.45-0.26,0.48-0.7,0.68-1.01c1.19-1.83,2.8-2.91,5.07-2.84c0.57,0.02,0.9,0.11,0.87,0.79
		c-0.04,1.12-0.03,2.24,0,3.36c0.01,0.54-0.16,0.62-0.69,0.59c-3.36-0.21-5.26,1.61-5.31,5.11c-0.04,3.04-0.05,6.08,0.02,9.12
		c0.02,0.94-0.28,1.17-1.15,1.1c-0.87-0.07-1.76-0.07-2.64,0c-0.92,0.08-1.25-0.2-1.22-1.18c0.07-2.44,0.04-4.88,0.02-7.32
		c-0.03-3.44-0.06-6.87-0.14-10.31c-0.01-0.63,0.12-0.86,0.77-0.82c1.15,0.07,2.6-0.33,3.35,0.23
		C435.37,183.13,435.06,184.74,435.16,185.89z"/>
	<path class="st2" d="M485.33,186.22c0.78-1.62,1.58-2.79,2.89-3.5c0.32-0.17,0.64-0.33,0.98-0.44c2.25-0.73,2.73-0.4,2.73,1.87
		c0,0.12,0,0.24,0,0.36c-0.01,0.68,0.21,1.47-0.07,2.01c-0.35,0.68-1.2,0.09-1.83,0.17c-2.52,0.32-4.06,2.25-4.09,5.33
		c-0.03,3-0.04,6,0.01,9c0.01,0.83-0.2,1.13-1.06,1.07c-0.95-0.07-1.92-0.07-2.88,0c-0.87,0.07-1.06-0.28-1.05-1.09
		c0.04-3.8,0.03-7.6,0.01-11.4c-0.01-1.96-0.03-3.92-0.14-5.87c-0.05-0.93,0.1-1.44,1.17-1.26c0.51,0.08,1.04,0.01,1.56,0.01
		c1.6,0,1.6,0,1.65,1.66C485.22,184.72,485.27,185.29,485.33,186.22z"/>
	<path class="st1" d="M275.88,192.26c0,2.92-0.03,5.83,0.02,8.75c0.01,0.8-0.14,1.15-1.03,1.08c-1.11-0.08-2.24-0.04-3.35-0.01
		c-0.52,0.01-0.68-0.17-0.68-0.69c0.01-6.07,0.02-12.15-0.01-18.22c0-0.63,0.26-0.72,0.78-0.7c1.12,0.03,2.24,0.06,3.35-0.01
		c0.74-0.04,0.94,0.18,0.93,0.93C275.86,186.35,275.88,189.31,275.88,192.26z"/>
	<path class="st1" d="M451.08,192.29c0,2.96-0.02,5.91,0.02,8.87c0.01,0.74-0.19,0.98-0.93,0.94c-1.08-0.06-2.16-0.07-3.23,0
		c-0.78,0.05-0.91-0.26-0.9-0.96c0.03-5.91,0.03-11.83,0-17.74c0-0.74,0.19-0.97,0.93-0.93c1.08,0.06,2.16,0.07,3.23,0
		c0.79-0.05,0.91,0.25,0.91,0.95C451.06,186.37,451.08,189.33,451.08,192.29z"/>
	<path class="st3" d="M288.28,180.01c1.15-1.94,2.18-3.64,3.15-5.37c0.28-0.49,0.59-0.67,1.14-0.65c1.27,0.03,2.54,0.01,3.77,0.01
		c0.26,0.23,0.11,0.38-0.01,0.53c-1.37,1.65-2.76,3.3-4.11,4.97c-0.34,0.43-0.74,0.53-1.25,0.52
		C290.15,179.99,289.33,180.01,288.28,180.01z"/>
	<path class="st2" d="M273.35,179.68c-1.67,0-2.76-1.02-2.78-2.6c-0.02-1.61,1.14-2.75,2.8-2.75c1.67,0,2.77,1.11,2.76,2.77
		C276.11,178.68,275.04,179.68,273.35,179.68z"/>
	<path class="st2" d="M448.6,179.68c-1.68,0.02-2.77-0.98-2.8-2.57c-0.03-1.64,1.08-2.77,2.74-2.78c1.66-0.01,2.81,1.11,2.81,2.73
		C451.36,178.63,450.28,179.66,448.6,179.68z"/>
	<path class="st4" d="M176.44,192.16c-0.05,0.81-0.05,1.65-0.16,2.48c-0.24,1.83-1.6,3.33-3.29,3.71c-1.88,0.43-3.75-0.32-4.79-1.93
		c-1.52-2.33-1.38-6.53,0.28-8.75c1.07-1.43,2.89-2.09,4.57-1.65c1.78,0.46,3.04,1.88,3.25,3.72
		C176.39,190.52,176.39,191.32,176.44,192.16z"/>
	<path class="st4" d="M389.64,192.44c-0.03-1.03-0.08-2.07,0.23-3.08c0.61-1.95,2.14-3.23,4.06-3.35c1.97-0.13,3.58,0.87,4.4,2.82
		c0.98,2.32,0.94,4.66-0.04,6.96c-0.89,2.09-2.92,3.16-5.03,2.76c-2.04-0.39-3.49-2.1-3.62-4.33
		C389.61,193.63,389.64,193.03,389.64,192.44z"/>
	<path class="st4" d="M470.8,192.71c-0.02,1.19-0.3,2.78-1.27,4.18c-1.86,2.7-5.5,2.66-7.13-0.18c-1.69-2.95-1.69-6.06,0.05-8.99
		c1.69-2.85,5.62-2.71,7.29,0.15C470.52,189.22,470.81,190.69,470.8,192.71z"/>
	<path class="st4" d="M295.57,192.26c0.03,1.5-0.26,2.94-1.02,4.25c-0.85,1.47-2.09,2.39-3.88,2.33c-1.74-0.05-2.96-0.99-3.69-2.46
		c-1.35-2.69-1.34-5.47-0.05-8.18c0.78-1.64,2.15-2.55,4.02-2.51c1.83,0.03,3.05,1.04,3.81,2.63
		C295.35,189.56,295.61,190.88,295.57,192.26z"/>
	<path class="st4" d="M240.81,194.3c0,2.8-1.39,4.49-3.78,4.58c-1.21,0.04-2.21-0.31-2.74-1.5c-0.48-1.07-0.24-2.53,0.6-3.33
		c1.55-1.49,3.55-1.45,5.5-1.54c0.37-0.02,0.42,0.29,0.41,0.59C240.8,193.5,240.8,193.9,240.81,194.3z"/>
	<path class="st5" d="M416.81,190.16c-1.16,0-2.32-0.01-3.48,0c-0.4,0-0.67-0.01-0.63-0.57c0.21-2.67,2.9-4.66,5.48-4.01
		c1.68,0.42,2.96,2.17,2.94,3.92c0,0.57-0.24,0.66-0.72,0.65C419.21,190.15,418.01,190.16,416.81,190.16z"/>
</g>
</svg>
