<?xml version="1.0" standalone="no"?>
<!DOCTYPE svg PUBLIC "-//W3C//DTD SVG 20010904//EN"
 "http://www.w3.org/TR/2001/REC-SVG-20010904/DTD/svg10.dtd">
<svg version="1.0" xmlns="http://www.w3.org/2000/svg"
 width="512.000000pt" height="512.000000pt" viewBox="0 0 512.000000 512.000000"
 preserveAspectRatio="xMidYMid meet">
<metadata>
Created by potrace 1.16, written by Peter Selinger 2001-2019
</metadata>
<g transform="translate(0.000000,512.000000) scale(0.100000,-0.100000)"
fill="#000000" stroke="none">
<path d="M2364 5105 c-262 -57 -498 -251 -609 -501 -57 -128 -83 -306 -65
-449 29 -231 147 -444 320 -578 37 -29 76 -57 86 -64 16 -9 16 -12 4 -16 -8
-3 -75 -23 -148 -46 -287 -91 -558 -258 -780 -484 l-73 -74 -222 53 c-250 60
-294 64 -323 33 -17 -19 -19 -44 -24 -291 l-5 -270 -39 -13 c-57 -20 -107 -65
-138 -125 l-28 -52 0 -345 c0 -236 4 -358 12 -385 21 -70 127 -168 182 -168
13 0 16 -53 18 -415 3 -399 4 -415 23 -434 15 -15 258 -76 1000 -251 821 -194
988 -231 1030 -227 28 3 480 108 1005 232 729 173 960 231 975 246 19 19 20
35 23 434 2 362 5 415 18 415 55 0 161 98 182 168 8 27 12 149 12 385 l0 345
-27 52 c-32 60 -82 105 -139 125 l-39 13 -5 270 c-5 247 -7 272 -24 291 -28
31 -68 27 -325 -33 l-230 -55 -98 97 c-242 240 -529 404 -866 497 l-59 16 59
40 c180 125 310 323 355 538 36 173 15 373 -57 534 -105 238 -332 426 -587
487 -98 24 -297 26 -394 5z m324 -161 c332 -68 565 -353 565 -689 0 -121 -19
-199 -76 -315 -33 -69 -58 -102 -132 -175 -99 -100 -176 -146 -305 -186 -95
-30 -260 -32 -360 -5 -327 88 -546 387 -527 720 23 426 421 735 835 650z m197
-1593 c320 -65 629 -221 859 -433 l78 -73 -630 -149 -631 -149 -623 147 c-343
81 -629 149 -637 152 -9 3 8 24 49 62 276 250 581 398 945 457 137 22 447 14
590 -14z m-1177 -773 l772 -183 0 -1107 c0 -882 -3 -1107 -12 -1103 -19 6
-1753 415 -1761 415 -4 0 -7 164 -7 365 0 341 1 365 18 365 9 0 40 13 68 30
57 32 109 100 121 159 5 20 8 185 8 366 0 327 0 331 -24 383 -27 61 -84 114
-148 138 l-43 17 0 197 0 197 118 -28 c64 -15 465 -110 890 -211z m2712 43 l0
-198 -43 -17 c-64 -24 -121 -77 -148 -138 -24 -52 -24 -56 -24 -383 0 -181 3
-346 8 -366 12 -59 64 -127 121 -159 28 -17 59 -30 69 -30 16 0 17 -24 17
-365 0 -201 -3 -365 -6 -365 -4 0 -378 -88 -833 -196 -454 -107 -852 -201
-883 -209 l-58 -13 0 1106 0 1107 652 154 c359 85 668 158 688 162 31 7 431
105 438 108 1 1 2 -88 2 -198z m-3699 -399 l29 -32 0 -311 c0 -390 0 -389
-137 -389 -72 0 -100 13 -122 57 -7 15 -11 121 -11 323 0 249 3 306 15 330 23
45 60 61 134 57 57 -3 67 -6 92 -35z m3859 23 c58 -30 60 -44 60 -377 0 -270
-2 -306 -17 -328 -29 -42 -46 -49 -116 -50 -137 0 -137 -1 -137 388 0 301 1
310 21 336 12 15 31 32 43 36 34 14 115 11 146 -5z"/>
</g>
</svg>
